<svg width="40" height="40" viewBox="0 0 40 40" fill="none" xmlns="http://www.w3.org/2000/svg">
<path d="M10.582 37.648L2.2573e-05 40L2.35202 29.418C0.803086 26.5208 -0.0049237 23.2853 2.2573e-05 20C2.2573e-05 8.954 8.95402 0 20 0C31.046 0 40 8.954 40 20C40 31.046 31.046 40 20 40C16.7147 40.0049 13.4793 39.1969 10.582 37.648ZM11.162 33.422L12.468 34.122C14.7851 35.3603 17.3728 36.0055 20 36C23.1645 36 26.258 35.0616 28.8891 33.3035C31.5203 31.5454 33.5711 29.0466 34.7821 26.1229C35.9931 23.1993 36.31 19.9823 35.6926 16.8786C35.0752 13.7749 33.5514 10.9239 31.3137 8.68629C29.0761 6.44865 26.2252 4.9248 23.1215 4.30744C20.0178 3.69007 16.8007 4.00693 13.8771 5.21793C10.9535 6.42893 8.45461 8.47969 6.69651 11.1109C4.93841 13.7421 4.00002 16.8355 4.00002 20C4.00002 22.668 4.65002 25.236 5.88002 27.532L6.57802 28.838L5.26802 34.732L11.162 33.422Z" fill="white"/>
</svg>
