<svg width="36" height="36" viewBox="0 0 36 36" fill="none" xmlns="http://www.w3.org/2000/svg">
<path d="M14 10H22V7C22 5.61553 22.4105 4.26216 23.1797 3.11101C23.9489 1.95987 25.0421 1.06266 26.3212 0.532846C27.6003 0.00303298 29.0078 -0.13559 30.3656 0.134506C31.7235 0.404603 32.9708 1.07129 33.9498 2.05026C34.9287 3.02922 35.5954 4.2765 35.8655 5.63437C36.1356 6.99224 35.997 8.3997 35.4672 9.67879C34.9373 10.9579 34.0401 12.0511 32.889 12.8203C31.7379 13.5895 30.3845 14 29 14H26V22H29C30.3845 22 31.7379 22.4105 32.889 23.1797C34.0401 23.9489 34.9373 25.0421 35.4672 26.3212C35.997 27.6003 36.1356 29.0078 35.8655 30.3656C35.5954 31.7235 34.9287 32.9708 33.9498 33.9498C32.9708 34.9287 31.7235 35.5954 30.3656 35.8655C29.0078 36.1356 27.6003 35.997 26.3212 35.4672C25.0421 34.9373 23.9489 34.0401 23.1797 32.889C22.4105 31.7379 22 30.3845 22 29V26H14V29C14 30.3845 13.5895 31.7379 12.8203 32.889C12.0511 34.0401 10.9579 34.9373 9.67879 35.4672C8.3997 35.997 6.99224 36.1356 5.63437 35.8655C4.2765 35.5954 3.02922 34.9287 2.05026 33.9498C1.07129 32.9708 0.404603 31.7235 0.134506 30.3656C-0.13559 29.0078 0.00303298 27.6003 0.532846 26.3212C1.06266 25.0421 1.95987 23.9489 3.11101 23.1797C4.26216 22.4105 5.61553 22 7 22H10V14H7C5.61553 14 4.26216 13.5895 3.11101 12.8203C1.95987 12.0511 1.06266 10.9579 0.532846 9.67879C0.00303298 8.3997 -0.13559 6.99224 0.134506 5.63437C0.404603 4.2765 1.07129 3.02922 2.05026 2.05026C3.02922 1.07129 4.2765 0.404603 5.63437 0.134506C6.99224 -0.13559 8.3997 0.00303298 9.67879 0.532846C10.9579 1.06266 12.0511 1.95987 12.8203 3.11101C13.5895 4.26216 14 5.61553 14 7V10ZM10 10V7C10 6.40666 9.82406 5.82664 9.49441 5.33329C9.16477 4.83994 8.69623 4.45543 8.14805 4.22836C7.59987 4.0013 6.99668 3.94189 6.41473 4.05765C5.83279 4.1734 5.29824 4.45913 4.87868 4.87868C4.45913 5.29824 4.1734 5.83279 4.05765 6.41473C3.94189 6.99668 4.0013 7.59987 4.22836 8.14805C4.45543 8.69623 4.83994 9.16477 5.33329 9.49441C5.82664 9.82406 6.40666 10 7 10H10ZM10 26H7C6.40666 26 5.82664 26.176 5.33329 26.5056C4.83994 26.8352 4.45543 27.3038 4.22836 27.852C4.0013 28.4001 3.94189 29.0033 4.05765 29.5853C4.1734 30.1672 4.45913 30.7018 4.87868 31.1213C5.29824 31.5409 5.83279 31.8266 6.41473 31.9424C6.99668 32.0581 7.59987 31.9987 8.14805 31.7716C8.69623 31.5446 9.16477 31.1601 9.49441 30.6667C9.82406 30.1734 10 29.5933 10 29V26ZM26 10H29C29.5933 10 30.1734 9.82406 30.6667 9.49441C31.1601 9.16477 31.5446 8.69623 31.7716 8.14805C31.9987 7.59987 32.0581 6.99668 31.9424 6.41473C31.8266 5.83279 31.5409 5.29824 31.1213 4.87868C30.7018 4.45913 30.1672 4.1734 29.5853 4.05765C29.0033 3.94189 28.4001 4.0013 27.852 4.22836C27.3038 4.45543 26.8352 4.83994 26.5056 5.33329C26.176 5.82664 26 6.40666 26 7V10ZM26 26V29C26 29.5933 26.176 30.1734 26.5056 30.6667C26.8352 31.1601 27.3038 31.5446 27.852 31.7716C28.4001 31.9987 29.0033 32.0581 29.5853 31.9424C30.1672 31.8266 30.7018 31.5409 31.1213 31.1213C31.5409 30.7018 31.8266 30.1672 31.9424 29.5853C32.0581 29.0033 31.9987 28.4001 31.7716 27.852C31.5446 27.3038 31.1601 26.8352 30.6667 26.5056C30.1734 26.176 29.5933 26 29 26H26ZM14 14V22H22V14H14Z" fill="#041C26"/>
</svg>
