<svg width="36" height="44" viewBox="0 0 36 44" fill="none" xmlns="http://www.w3.org/2000/svg">
<path d="M18 43.456L5.27201 30.728C2.75469 28.2106 1.04037 25.0033 0.345857 21.5117C-0.348659 18.02 0.00781369 14.4008 1.3702 11.1118C2.73258 7.82271 5.03969 5.01151 7.99977 3.03365C10.9598 1.0558 14.44 0.00012207 18 0.00012207C21.5601 0.00012207 25.0402 1.0558 28.0002 3.03365C30.9603 5.01151 33.2674 7.82271 34.6298 11.1118C35.9922 14.4008 36.3487 18.02 35.6542 21.5117C34.9596 25.0033 33.2453 28.2106 30.728 30.728L18 43.456ZM27.9 27.9C29.8578 25.942 31.191 23.4474 31.7311 20.7317C32.2712 18.016 31.9939 15.2012 30.9342 12.6431C29.8745 10.085 28.0801 7.89858 25.7778 6.3603C23.4756 4.82203 20.7689 4.00098 18 4.00098C15.2311 4.00098 12.5244 4.82203 10.2222 6.3603C7.91992 7.89858 6.1255 10.085 5.06583 12.6431C4.00616 15.2012 3.72883 18.016 4.26891 20.7317C4.80899 23.4474 6.14222 25.942 8.10001 27.9L18 37.8L27.9 27.9ZM18 22C16.9391 22 15.9217 21.5785 15.1716 20.8284C14.4214 20.0782 14 19.0608 14 18C14 16.9391 14.4214 15.9217 15.1716 15.1715C15.9217 14.4214 16.9391 14 18 14C19.0609 14 20.0783 14.4214 20.8284 15.1715C21.5786 15.9217 22 16.9391 22 18C22 19.0608 21.5786 20.0782 20.8284 20.8284C20.0783 21.5785 19.0609 22 18 22Z" fill="#041C26"/>
</svg>
